<svg width="23" height="23" viewBox="0 0 23 23" fill="none" xmlns="http://www.w3.org/2000/svg">
<g clip-path="url(#clip0_4_6)">
<path d="M11.5 1.909C9.76511 1.90932 8.06287 2.38057 6.57483 3.27248C5.0868 4.16439 3.86879 5.44351 3.05073 6.97339C2.23267 8.50327 1.84524 10.2265 1.92978 11.9593C2.01432 13.6921 2.56765 15.3695 3.53075 16.8125C4.49385 18.2554 5.83059 19.4099 7.39838 20.1527C8.96617 20.8956 10.7062 21.1989 12.4329 21.0303C14.1595 20.8618 15.808 20.2277 17.2025 19.1956C18.5971 18.1636 19.6853 16.7724 20.3511 15.1704C20.6779 14.3846 19.895 13.5949 19.1072 13.915C17.7571 14.4619 16.258 14.5183 14.8706 14.0745C13.4832 13.6307 12.2952 12.7146 11.5131 11.4856C10.7311 10.2567 10.4045 8.79249 10.5902 7.34768C10.7758 5.90288 11.4619 4.56882 12.5292 3.57745L12.603 3.50079C13.1311 2.89704 12.7113 1.91666 11.8766 1.91666H11.6217L11.5565 1.91091L11.499 1.909H11.5Z" fill="#333333"/>
</g>
<defs>
<clipPath id="clip0_4_6">
<rect width="23" height="23" fill="white"/>
</clipPath>
</defs>
</svg>
