<svg width="23" height="23" viewBox="0 0 23 23" fill="none" xmlns="http://www.w3.org/2000/svg">
<g clip-path="url(#clip0_4_77)">
<path d="M14.2103 14.2102C14.5764 13.8566 14.8684 13.4336 15.0693 12.9659C15.2702 12.4982 15.376 11.9952 15.3804 11.4862C15.3848 10.9772 15.2878 10.4725 15.0951 10.0013C14.9023 9.53025 14.6177 9.10225 14.2578 8.74233C13.8979 8.3824 13.4699 8.09777 12.9988 7.90502C12.5277 7.71228 12.0229 7.61529 11.5139 7.61971C11.0049 7.62414 10.5019 7.72988 10.0342 7.93078C9.56653 8.13169 9.14354 8.42372 8.78993 8.78984C8.09166 9.51281 7.70528 10.4811 7.71401 11.4862C7.72275 12.4913 8.12589 13.4527 8.83662 14.1635C9.54736 14.8742 10.5088 15.2774 11.5139 15.2861C12.519 15.2948 13.4873 14.9084 14.2103 14.2102Z" stroke="white" stroke-width="2" stroke-linecap="round" stroke-linejoin="round"/>
<path d="M6.07872 16.9213L4.72363 18.2764" stroke="white" stroke-width="2" stroke-linecap="round" stroke-linejoin="round"/>
<path d="M6.07872 6.07872L4.72363 4.72363" stroke="white" stroke-width="2" stroke-linecap="round" stroke-linejoin="round"/>
<path d="M16.9214 6.07872L18.2765 4.72363" stroke="white" stroke-width="2" stroke-linecap="round" stroke-linejoin="round"/>
<path d="M16.9214 16.9213L18.2765 18.2764" stroke="white" stroke-width="2" stroke-linecap="round" stroke-linejoin="round"/>
<path d="M3.83341 11.5H1.91675" stroke="white" stroke-width="2" stroke-linecap="round" stroke-linejoin="round"/>
<path d="M11.5 3.83332V1.91666" stroke="white" stroke-width="2" stroke-linecap="round" stroke-linejoin="round"/>
<path d="M19.1667 11.5H21.0834" stroke="white" stroke-width="2" stroke-linecap="round" stroke-linejoin="round"/>
<path d="M11.5 19.1667V21.0833" stroke="white" stroke-width="2" stroke-linecap="round" stroke-linejoin="round"/>
</g>
<defs>
<clipPath id="clip0_4_77">
<rect width="23" height="23" fill="white"/>
</clipPath>
</defs>
</svg>
